<svg xmlns="http://www.w3.org/2000/svg" viewBox="0 0 256 256" width="256" height="256">
  <defs>
    <linearGradient id="ink" x1="112" y1="0" x2="224" y2="0" gradientUnits="userSpaceOnUse">
      <stop offset="0" stop-color="#ff5faf" stop-opacity="0"></stop>
      <stop offset="0.18" stop-color="#ff5faf" stop-opacity="0.85"></stop>
      <stop offset="0.6" stop-color="#d946ef"></stop>
      <stop offset="1" stop-color="#8b5cf6"></stop>
    </linearGradient>
    <linearGradient id="nib-body" x1="0" y1="0" x2="1" y2="1">
      <stop offset="0" stop-color="#d946ef"></stop>
      <stop offset="1" stop-color="#7c3aed"></stop>
    </linearGradient>
    <linearGradient id="ember" x1="0" y1="0" x2="1" y2="1">
      <stop offset="0" stop-color="#ffb347"></stop>
      <stop offset="1" stop-color="#ff5faf"></stop>
    </linearGradient>
    <linearGradient id="ivory" x1="0" y1="0" x2="0" y2="1">
      <stop offset="0" stop-color="#fffaf3"></stop>
      <stop offset="1" stop-color="#f2e9e0"></stop>
    </linearGradient>
    <linearGradient id="slate" x1="0" y1="0" x2="0" y2="1">
      <stop offset="0" stop-color="#3a2740"></stop>
      <stop offset="1" stop-color="#28182e"></stop>
    </linearGradient>
    <linearGradient id="steel" x1="0" y1="0" x2="0" y2="1">
      <stop offset="0" stop-color="#f4efef"></stop>
      <stop offset="0.5" stop-color="#cfc8ce"></stop>
      <stop offset="1" stop-color="#8b8090"></stop>
    </linearGradient>
    <linearGradient id="barrel-clear" x1="0" y1="0" x2="0" y2="1">
      <stop offset="0" stop-color="rgba(255,255,255,0.88)"></stop>
      <stop offset="1" stop-color="rgba(220,210,230,0.6)"></stop>
    </linearGradient>

    <filter id="lift" x="-10%" y="-10%" width="120%" height="120%">
      <feGaussianBlur in="SourceAlpha" stdDeviation="2.2"></feGaussianBlur>
      <feOffset dx="0" dy="1.6" result="b"></feOffset>
      <feFlood flood-color="#000" flood-opacity="0.38"></feFlood>
      <feComposite in2="b" operator="in"></feComposite>
      <feMerge>
        <feMergeNode></feMergeNode>
        <feMergeNode in="SourceGraphic"></feMergeNode>
      </feMerge>
    </filter>
  </defs>

  <g filter="url(#lift)">
    
    <rect x="13" y="11" width="230" height="234" rx="24" fill="#3a2e33" opacity="1"></rect>

    
    <path d="M 86 14 h132 a22 22 0 0 1 22 22 v184 a22 22 0 0 1 -22 22 h-132 z" fill="url(#ivory)"></path>
    

    
    <path d="M 16 36 a22 22 0 0 1 22 -22 h48 v228 h-48 a22 22 0 0 1 -22 -22 z" fill="url(#slate)"></path>
    <circle cx="45" cy="38" r="3.8" fill="#ff5faf"></circle>
    <circle cx="56" cy="38" r="3.8" fill="rgba(255,255,255,0.35)"></circle>
    <circle cx="67" cy="38" r="3.8" fill="rgba(255,255,255,0.35)"></circle>
    <g fill="rgba(255,255,255,0.5)">
      <rect x="36" y="64" width="34" height="5.2" rx="2.6"></rect>
      <rect x="36" y="80" width="28" height="5.2" rx="2.6"></rect>
      <rect x="36" y="96" width="38" height="5.2" rx="2.6"></rect>
      <rect x="36" y="112" width="24" height="5.2" rx="2.6"></rect>
      <rect x="36" y="128" width="34" height="5.2" rx="2.6"></rect>
      <rect x="36" y="144" width="28" height="5.2" rx="2.6"></rect>
      <rect x="36" y="160" width="38" height="5.2" rx="2.6"></rect>
      <rect x="36" y="176" width="20" height="5.2" rx="2.6"></rect>
      <rect x="36" y="192" width="34" height="5.2" rx="2.6"></rect>
      <rect x="36" y="208" width="26" height="5.2" rx="2.6"></rect>
    </g>

    
    <g fill="#c7b7a3">
      <rect x="104" y="50" width="108" height="6.4" rx="3.2"></rect>
      <rect x="104" y="68" width="116" height="5.6" rx="2.8"></rect>
      <rect x="104" y="86" width="92" height="5.6" rx="2.8"></rect>
      <rect x="104" y="104" width="112" height="5.6" rx="2.8"></rect>
      <rect x="104" y="122" width="96" height="5.6" rx="2.8"></rect>
    </g>
    
    <rect x="104" y="142" width="96" height="6.2" rx="3.1" fill="url(#ink)"></rect>
    <circle cx="200" cy="145.1" r="3.8" fill="#8b5cf6" opacity="0.55"></circle>
    <g fill="#ebdecd">
      <rect x="104" y="168" width="72" height="4.4" rx="2.2"></rect>
      <rect x="104" y="186" width="96" height="4.4" rx="2.2"></rect>
      <rect x="104" y="204" width="52" height="4.4" rx="2.2"></rect>
    </g>

    
    <g transform="translate(200 145.1) rotate(-36)">
      
      <g transform="translate(0,4)" opacity="0.22">
        <path d="M 0 0 L 10 -2.5 L 10 2.5 Z M 10 -2.5 L 24 -6.5 L 24 6.5 L 10 2.5 Z M 24 -6.5 L 40 -10 L 40 10 L 24 6.5 Z" fill="#2a1a20"></path>
        <rect x="40" y="-10" width="116" height="20" rx="9" fill="#2a1a20"></rect>
      </g>
      
      <circle cx="0" cy="0" r="2.8" fill="#2c1f36"></circle>
      
      <path d="M 2.4 -2.4 L 14 -3 L 14 3 L 2.4 2.4 Z" fill="url(#steel)"></path>
      <path d="M 14 -6 L 29 -7 L 29 7 L 14 6 Z" fill="#1a1320"></path>
      <path d="M 29 -8.6 L 40 -10 L 40 10 L 29 8.6 Z" fill="url(#steel)"></path>
      
      <rect x="40" y="-10" width="108" height="20" rx="3.6" fill="url(#barrel-clear)" stroke="rgba(60,40,80,0.45)" stroke-width="1.2"></rect>
      
      <rect x="43" y="-2.6" width="98" height="5.2" rx="2.6" fill="url(#nib-body)" opacity="0.78"></rect>
      
      <line x1="45" y1="-6.2" x2="144" y2="-6.2" stroke="rgba(255,255,255,0.7)" stroke-width="1.6"></line>
      
      <path d="M 148 -10 L 158 -10 L 161 -6.4 L 161 6.4 L 158 10 L 148 10 Z" fill="#1a1320"></path>
      
      <path d="M 100 -10 L 140 -10 L 140 -15.6 L 104 -15 Z" fill="#1a1320"></path>
      
      <circle cx="-2" cy="0" r="9" fill="#ff5faf" opacity="0.28"></circle>
    </g>
  </g>
</svg>
